<svg xmlns="http://www.w3.org/2000/svg" viewBox="0 0 512 512">
  <!-- Fondo tierra -->
  <rect width="512" height="512" fill="#3D2B1A"/>
  <!-- Cielo -->
  <rect width="512" height="240" fill="#2A4A3A"/>
  <!-- Campo / pasto -->
  <ellipse cx="256" cy="310" rx="260" ry="90" fill="#3D6B4A"/>
  <ellipse cx="256" cy="295" rx="230" ry="70" fill="#5A9469"/>
  <!-- Sol -->
  <circle cx="420" cy="90" r="48" fill="#C8A86A" opacity="0.9"/>
  <!-- Vaca — cuerpo -->
  <ellipse cx="220" cy="260" rx="85" ry="52" fill="#FAF6ED"/>
  <!-- Vaca — cabeza -->
  <ellipse cx="300" cy="232" rx="42" ry="34" fill="#FAF6ED"/>
  <!-- Vaca — manchas -->
  <ellipse cx="195" cy="248" rx="30" ry="20" fill="#3D2B1A" opacity="0.25"/>
  <ellipse cx="240" cy="270" rx="22" ry="15" fill="#3D2B1A" opacity="0.18"/>
  <!-- Vaca — oreja -->
  <ellipse cx="328" cy="215" rx="14" ry="10" fill="#C8A86A"/>
  <!-- Vaca — ojo -->
  <circle cx="315" cy="228" r="5" fill="#3D2B1A"/>
  <!-- Vaca — hocico -->
  <ellipse cx="334" cy="242" rx="16" hy="11" fill="#E2CFA0"/>
  <!-- Vaca — patas -->
  <rect x="155" y="302" width="18" height="35" rx="6" fill="#E2CFA0"/>
  <rect x="195" y="307" width="18" height="30" rx="6" fill="#E2CFA0"/>
  <rect x="240" y="307" width="18" height="30" rx="6" fill="#E2CFA0"/>
  <rect x="278" y="302" width="18" height="35" rx="6" fill="#E2CFA0"/>
  <!-- Letras LM -->
  <text x="256" y="470" font-family="Georgia, serif" font-size="72" font-weight="700" fill="#C8A86A" text-anchor="middle" letter-spacing="8">LM</text>
</svg>
